<svg width="1365" height="950" viewBox="0 0 1365 950" fill="none" xmlns="http://www.w3.org/2000/svg">
<path d="M585.132 338.519C585.132 530.867 476.259 664.371 291.075 664.371C105.89 664.371 0 536.983 0 363.195C0 189.408 123.787 27.4307 291.075 27.4307C446.43 27.4307 585.132 183.08 585.132 338.519ZM398.705 358.977C398.705 201.429 364.651 53.7942 292.566 53.7942C251.055 53.7942 190.653 162.412 190.653 358.977C190.653 499.442 231.418 639.273 294.555 639.273C357.691 639.273 398.456 504.292 398.456 358.977H398.705Z" fill="#F5037C"/>
<path d="M1117.76 241.243C1085.6 241.243 1081.5 247.722 1068.11 286.597C1068.11 286.597 892.421 791.543 889.183 801.045C874.722 839.705 844.073 872.532 775.651 872.532C751.477 872.532 687.804 852.879 687.804 787.007C687.804 738.413 729.893 715.52 760.543 715.52C800.689 715.52 833.281 748.132 833.281 788.303C833.281 797.59 831.554 806.445 828.316 814.652C835.871 808.82 839.756 796.942 844.073 785.279C848.821 771.673 867.383 718.544 885.946 665.198H801.12C762.269 556.78 677.228 318.993 656.076 259.385C651.975 249.666 646.147 241.675 632.549 241.675H618.52V216.19H850.548C850.548 216.19 850.548 232.388 850.548 241.675C847.094 241.675 843.641 241.675 840.619 241.675C829.18 241.675 821.841 250.746 829.827 275.367C846.663 326.336 895.874 474.71 925.66 552.244C958.684 457 1020.2 280.334 1020.2 280.334C1025.59 264.568 1030.99 241.675 1004.44 241.675C1001.2 241.675 992.787 241.675 987.822 241.675C987.822 232.172 987.822 216.19 987.822 216.19H1118.19C1118.19 216.19 1118.19 230.66 1118.19 241.675L1117.76 241.243Z" fill="#F5037C"/>
<path d="M1364.86 664.549H1132.84V639.064C1160.25 639.064 1169.53 615.739 1170.61 597.382V107.771C1169.53 89.4129 1160.03 66.3037 1132.84 66.3037V40.8189C1199.53 40.8189 1274 31.3161 1308.1 0C1311.77 2.80765 1322.34 10.5827 1327.09 12.5264V593.926C1327.09 612.716 1335.73 639.28 1364.86 639.28C1364.86 648.783 1364.86 664.765 1364.86 664.765V664.549Z" fill="#F5037C"/>
<path d="M105.008 874.642C95.9058 874.642 87.7139 873.082 80.4323 869.961C73.1507 866.711 67.4294 862.16 63.2684 856.308C59.1075 850.457 57.027 843.63 57.027 835.829H80.8224C81.3425 841.68 83.618 846.491 87.6489 850.262C91.8099 854.033 97.5962 855.918 105.008 855.918C112.68 855.918 118.661 854.098 122.952 850.457C127.243 846.686 129.388 841.875 129.388 836.024C129.388 831.473 128.023 827.767 125.292 824.906C122.692 822.046 119.376 819.835 115.345 818.275C111.444 816.714 105.983 815.024 98.9615 813.204C90.1195 810.863 82.9029 808.523 77.3116 806.182C71.8504 803.711 67.1693 799.941 63.2684 794.869C59.3676 789.798 57.4171 783.037 57.4171 774.585C57.4171 766.783 59.3676 759.957 63.2684 754.105C67.1693 748.254 72.6305 743.768 79.6521 740.647C86.6737 737.526 94.8005 735.966 104.033 735.966C117.166 735.966 127.893 739.282 136.215 745.913C144.667 752.415 149.348 761.387 150.258 772.829H125.683C125.292 767.888 122.952 763.662 118.661 760.152C114.37 756.641 108.714 754.885 101.692 754.885C95.3607 754.885 90.1195 756.511 86.0886 759.762C82.0577 763.012 80.0422 767.693 80.0422 773.805C80.0422 777.966 81.2775 781.411 83.7481 784.142C86.3486 786.743 89.5994 788.823 93.5002 790.383C97.4011 791.944 102.732 793.634 109.494 795.455C118.466 797.925 125.748 800.396 131.339 802.866C137.06 805.337 141.871 809.173 145.772 814.374C149.803 819.445 151.818 826.272 151.818 834.853C151.818 841.745 149.933 848.246 146.162 854.358C142.521 860.469 137.125 865.41 129.973 869.181C122.952 872.822 114.63 874.642 105.008 874.642ZM233.642 764.052C241.834 764.052 249.116 765.808 255.487 769.319C261.989 772.829 267.06 778.031 270.701 784.922C274.472 791.814 276.357 800.136 276.357 809.888V873.277H254.317V813.204C254.317 803.581 251.911 796.235 247.1 791.164C242.289 785.962 235.723 783.362 227.401 783.362C219.079 783.362 212.448 785.962 207.506 791.164C202.695 796.235 200.29 803.581 200.29 813.204V873.277H178.055V728.945H200.29V778.291C204.061 773.74 208.807 770.229 214.528 767.758C220.379 765.288 226.751 764.052 233.642 764.052ZM351.335 875.032C341.192 875.032 332.025 872.757 323.833 868.206C315.642 863.525 309.205 857.023 304.524 848.702C299.843 840.25 297.503 830.497 297.503 819.445C297.503 808.523 299.908 798.835 304.719 790.383C309.53 781.932 316.097 775.43 324.419 770.879C332.74 766.328 342.038 764.052 352.31 764.052C362.582 764.052 371.879 766.328 380.201 770.879C388.523 775.43 395.09 781.932 399.901 790.383C404.712 798.835 407.117 808.523 407.117 819.445C407.117 830.367 404.647 840.055 399.706 848.507C394.764 856.958 388.003 863.525 379.421 868.206C370.969 872.757 361.607 875.032 351.335 875.032ZM351.335 855.723C357.056 855.723 362.387 854.358 367.328 851.627C372.399 848.897 376.495 844.801 379.616 839.339C382.737 833.878 384.297 827.247 384.297 819.445C384.297 811.643 382.802 805.077 379.811 799.746C376.82 794.284 372.855 790.188 367.913 787.458C362.972 784.727 357.641 783.362 351.92 783.362C346.198 783.362 340.867 784.727 335.926 787.458C331.115 790.188 327.279 794.284 324.419 799.746C321.558 805.077 360.128 811.643 360.128 819.445C360.128 831.018 323.053 839.99 328.905 846.361C334.886 852.602 342.363 855.723 351.335 855.723ZM451.333 781.606C455.104 776.665 460.24 772.504 466.741 769.124C473.243 765.743 480.589 764.052 488.781 764.052C498.143 764.052 506.66 766.393 514.332 771.074C522.134 775.625 528.245 782.062 532.666 790.383C537.087 798.705 539.298 808.262 539.298 819.055C539.298 829.847 537.087 839.534 532.666 848.116C528.245 856.568 522.134 863.2 514.332 868.011C506.66 872.692 498.143 875.032 488.781 875.032C480.589 875.032 473.308 873.407 466.936 870.156C460.565 866.776 455.364 862.615 451.333 857.674V924.379H429.098V765.808H451.333V781.606ZM516.672 819.055C516.672 811.643 515.112 805.272 511.991 799.941C509.001 794.479 504.97 790.383 499.899 787.653C494.958 784.792 489.626 783.362 483.905 783.362C478.314 783.362 472.983 784.792 467.912 787.653C462.97 790.513 458.939 794.674 455.819 800.136C452.828 805.597 451.333 812.033 451.333 819.445C451.333 826.857 452.828 833.358 455.819 838.949C458.939 844.411 462.97 848.572 467.912 851.432C472.983 854.293 478.314 855.723 483.905 855.723C489.626 855.723 494.958 854.293 499.899 851.432C504.97 848.442 509.001 844.151 511.991 838.559C515.112 832.968 516.672 826.467 516.672 819.055Z" fill="#FF5601"/>
</svg>
