<svg width="131" height="92" viewBox="0 0 131 92" fill="none" xmlns="http://www.w3.org/2000/svg">
<g id="logo">
<g id="Group 32">
<path id="Vector" d="M56.1612 32.4907C56.1612 50.9523 45.7115 63.7661 27.9374 63.7661C10.1634 63.7661 0 51.5393 0 34.8591C0 18.1789 11.8812 2.63232 27.9374 2.63232C42.8485 2.63232 56.1612 17.5716 56.1612 32.4907ZM38.2678 34.4543C38.2678 19.3328 34.9993 5.16269 28.0806 5.16269C24.0963 5.16269 18.2989 15.5878 18.2989 34.4543C18.2989 47.9361 22.2116 61.3572 28.2714 61.3572C34.3313 61.3572 38.244 48.4017 38.244 34.4543H38.2678Z" fill="#F5037C"/>
<path id="Vector_2" d="M107.283 23.1546C104.196 23.1546 103.802 23.7765 102.518 27.5077C102.518 27.5077 85.6548 75.9725 85.3441 76.8846C83.9561 80.5951 81.0144 83.7459 74.4473 83.7459C72.127 83.7459 66.0157 81.8596 66.0157 75.5372C66.0157 70.8731 70.0554 68.6758 72.9971 68.6758C76.8504 68.6758 79.9785 71.8059 79.9785 75.6616C79.9785 76.5529 79.8128 77.4028 79.5021 78.1905C80.2271 77.6308 80.6 76.4907 81.0144 75.3714C81.4701 74.0654 83.2517 68.966 85.0333 63.8459H76.8918C73.1628 53.4399 65.0006 30.6171 62.9704 24.8958C62.5768 23.963 62.0174 23.196 60.7123 23.196H59.3657V20.75H81.6359C81.6359 20.75 81.6359 22.3047 81.6359 23.196C81.3044 23.196 80.9729 23.196 80.6829 23.196C79.5849 23.196 78.8806 24.0667 79.6471 26.4298C81.263 31.3219 85.9863 45.5628 88.8452 53.0046C92.0148 43.863 97.9189 26.9066 97.9189 26.9066C98.4369 25.3933 98.9548 23.196 96.4067 23.196C96.0959 23.196 95.288 23.196 94.8115 23.196C94.8115 22.284 94.8115 20.75 94.8115 20.75H107.324C107.324 20.75 107.324 22.1389 107.324 23.196L107.283 23.1546Z" fill="#F5037C"/>
<path id="Vector_3" d="M131 63.7836H108.73V61.3376C111.361 61.3376 112.252 59.0989 112.355 57.3369V10.3439C112.252 8.58187 111.34 6.36385 108.73 6.36385V3.91781C115.131 3.91781 122.279 3.00573 125.552 0C125.904 0.269479 126.919 1.01573 127.375 1.20229V57.0052C127.375 58.8086 128.203 61.3583 131 61.3583C131 62.2704 131 63.8044 131 63.8044V63.7836Z" fill="#F5037C"/>
</g>
<path id="Shop" d="M10.0784 84.3122C9.20483 84.3122 8.41857 84.1624 7.71968 83.8629C7.02079 83.5509 6.47165 83.1141 6.07229 82.5525C5.67292 81.9909 5.47323 81.3357 5.47323 80.5868H7.75712C7.80704 81.1485 8.02545 81.6102 8.41233 81.9721C8.8117 82.3341 9.36707 82.515 10.0784 82.515C10.8148 82.515 11.3889 82.3403 11.8007 81.9909C12.2126 81.6289 12.4185 81.1672 12.4185 80.6056C12.4185 80.1688 12.2875 79.8131 12.0254 79.5385C11.7758 79.2639 11.4575 79.0518 11.0706 78.902C10.6962 78.7522 10.172 78.59 9.49812 78.4153C8.64946 78.1906 7.9568 77.966 7.42015 77.7413C6.89598 77.5042 6.44669 77.1423 6.07229 76.6556C5.69788 76.1688 5.51067 75.5199 5.51067 74.7086C5.51067 73.9598 5.69788 73.3046 6.07229 72.743C6.44669 72.1814 6.97086 71.7508 7.6448 71.4513C8.31873 71.1518 9.09875 71.002 9.98485 71.002C11.2454 71.002 12.275 71.3602 13.0737 71.9567C13.8849 72.5808 14.3342 73.4419 14.4216 74.5402H12.0628C12.0254 74.0659 11.8007 73.6603 11.3889 73.3233C10.977 72.9864 10.4341 72.8179 9.7602 72.8179C9.14867 72.8179 8.64946 72.9739 8.26257 73.2859C7.87568 73.5979 7.68224 74.0472 7.68224 74.6338C7.68224 75.0331 7.8008 75.3639 8.03793 75.6259C8.28753 75.8755 8.59954 76.0752 8.97395 76.225C9.34835 76.3748 9.86004 76.537 10.509 76.7117C11.3702 76.9488 12.069 77.186 12.6057 77.4231C13.1548 77.6602 13.6166 78.0284 13.991 78.5276C14.3779 79.0143 14.5713 79.6695 14.5713 80.4932C14.5713 81.1547 14.3904 81.7787 14.0284 82.3653C13.679 82.9518 13.1611 83.4261 12.4747 83.788C11.8007 84.1375 11.002 84.3122 10.0784 84.3122ZM22.4248 73.6977C23.2111 73.6977 23.91 73.8662 24.5215 74.2032C25.1455 74.5402 25.6323 75.0394 25.9817 75.7008C26.3436 76.3623 26.5246 77.161 26.5246 78.097V84.1812H24.4092V78.4153C24.4092 77.4917 24.1783 76.7866 23.7165 76.2999C23.2548 75.8007 22.6245 75.5511 21.8258 75.5511C21.027 75.5511 20.3906 75.8007 19.9163 76.2999C19.4545 76.7866 19.2236 77.4917 19.2236 78.4153V84.1812H17.0895V70.3281H19.2236V75.0643C19.5856 74.6275 20.0411 74.2905 20.5902 74.0534C21.1518 73.8163 21.7634 73.6977 22.4248 73.6977ZM33.721 84.3496C32.7475 84.3496 31.8677 84.1312 31.0814 83.6944C30.2951 83.2451 29.6774 82.6211 29.2281 81.8224C28.7788 81.0112 28.5541 80.0751 28.5541 79.0143C28.5541 77.966 28.785 77.0362 29.2468 76.225C29.7086 75.4138 30.3388 74.7898 31.1376 74.353C31.9363 73.9161 32.8286 73.6977 33.8146 73.6977C34.8005 73.6977 35.6929 73.9161 36.4916 74.353C37.2903 74.7898 37.9206 75.4138 38.3823 76.225C38.8441 77.0362 39.075 77.966 39.075 79.0143C39.075 80.0627 38.8379 80.9924 38.3636 81.8037C37.8894 82.6149 37.2404 83.2451 36.4167 83.6944C35.6055 84.1312 34.7069 84.3496 33.721 84.3496ZM33.721 82.4963C34.2701 82.4963 34.7818 82.3653 35.256 82.1032C35.7428 81.8411 36.1359 81.448 36.4354 80.9238C36.735 80.3996 36.8847 79.7631 36.8847 79.0143C36.8847 78.2655 36.7412 77.6353 36.4541 77.1236C36.1671 76.5994 35.7865 76.2063 35.3122 75.9442C34.838 75.6821 34.3263 75.5511 33.7771 75.5511C33.228 75.5511 32.7163 75.6821 32.2421 75.9442C31.7803 76.2063 31.4121 76.5994 31.1376 77.1236C30.863 77.6353 30.7257 78.2655 30.7257 79.0143C30.7257 80.1251 31.0065 80.9862 31.5681 81.5977C32.1422 82.1968 32.8598 82.4963 33.721 82.4963ZM43.3188 75.3826C43.6808 74.9083 44.1737 74.509 44.7977 74.1845C45.4217 73.86 46.1269 73.6977 46.9131 73.6977C47.8117 73.6977 48.6292 73.9224 49.3655 74.3717C50.1143 74.8085 50.7009 75.4263 51.1252 76.225C51.5496 77.0237 51.7617 77.941 51.7617 78.9769C51.7617 80.0127 51.5496 80.9425 51.1252 81.7662C50.7009 82.5774 50.1143 83.2139 49.3655 83.6757C48.6292 84.125 47.8117 84.3496 46.9131 84.3496C46.1269 84.3496 45.428 84.1936 44.8165 83.8816C44.2049 83.5571 43.7057 83.1578 43.3188 82.6835V89.0859H41.1847V73.8662H43.3188V75.3826ZM49.5902 78.9769C49.5902 78.2655 49.4404 77.654 49.1409 77.1423C48.8538 76.6181 48.4669 76.225 47.9802 75.9629C47.506 75.6883 46.9943 75.5511 46.4451 75.5511C45.9085 75.5511 45.3968 75.6883 44.9101 75.9629C44.4358 76.2375 44.0489 76.6368 43.7494 77.161C43.4623 77.6852 43.3188 78.303 43.3188 79.0143C43.3188 79.7257 43.4623 80.3497 43.7494 80.8864C44.0489 81.4105 44.4358 81.8099 44.9101 82.0845C45.3968 82.359 45.9085 82.4963 46.4451 82.4963C46.9943 82.4963 47.506 82.359 47.9802 82.0845C48.4669 81.7974 48.8538 81.3856 49.1409 80.8489C49.4404 80.3123 49.5902 79.6883 49.5902 78.9769Z" fill="#FF5601"/>
</g>
</svg>
